<?xml version="1.0" encoding="utf-8"?>
<!DOCTYPE svg PUBLIC "-//W3C//DTD SVG 1.1//EN" "http://www.w3.org/Graphics/SVG/1.1/DTD/svg11.dtd">
<svg version="1.1" baseProfile="full"
 xmlns="http://www.w3.org/2000/svg"
 xmlns:xlink="http://www.w3.org/1999/xlink"
 xmlns:ev="http://www.w3.org/2001/xml-events" 
  height="10px" 
  width="7px" 
>
<path fill="rgb( 229, 229, 229 )"
 d="M6,10 C6,10 6,0 6,0 C6,0 7,0 7,0 C7,0 7,10 7,10 C7,10 6,10 6,10 ZM3,0 C3,0 4,0 4,0 C4,0 4,10 4,10 C4,10 3,10 3,10 C3,10 3,0 3,0 ZM0,0 C0,0 1,0 1,0 C1,0 1,10 1,10 C1,10 0,10 0,10 C0,10 0,0 0,0 Z "/>
</svg>
