<?xml version="1.0" encoding="utf-8"?>
<!-- Generator: Adobe Illustrator 18.0.0, SVG Export Plug-In . SVG Version: 6.00 Build 0)  -->
<!DOCTYPE svg PUBLIC "-//W3C//DTD SVG 1.1//EN" "http://www.w3.org/Graphics/SVG/1.1/DTD/svg11.dtd">
<svg version="1.1" id="Layer_1" xmlns="http://www.w3.org/2000/svg" xmlns:xlink="http://www.w3.org/1999/xlink" x="0px" y="0px"
	 viewBox="0 0 162.6 48.4" enable-background="new 0 0 162.6 48.4" xml:space="preserve">
<path fill="#3a8ef2" d="M26.3,4.4V0h5.3v4.4H26.3z M31.7,7.4v19.4h-5.3V7.4H31.7z"/>
<path fill="#3a8ef2" d="M46.8,7.4V11h-3.9v9.6c0,0.9,0.2,1.5,0.5,1.8c0.3,0.3,0.9,0.5,1.8,0.5c0.3,0,0.6,0,0.9,0
	c0.3,0,0.5-0.1,0.8-0.1v4.1c-0.5,0.1-1,0.1-1.5,0.2c-0.6,0-1.1,0-1.6,0c-0.8,0-1.6-0.1-2.3-0.2c-0.7-0.1-1.4-0.3-2-0.7
	c-0.6-0.3-1-0.8-1.3-1.4c-0.3-0.6-0.5-1.4-0.5-2.4V11h-3.2V7.4h3.2V1.6h5.3v5.8H46.8z"/>
<path fill="#3a8ef2" d="M50.6,10.3c0.6-0.8,1.3-1.5,2.1-2c0.9-0.5,1.8-0.9,2.9-1.1c1.1-0.2,2.1-0.3,3.2-0.3c1,0,2,0.1,3,0.2
	c1,0.1,1.9,0.4,2.7,0.8c0.8,0.4,1.5,1,2,1.7c0.5,0.7,0.8,1.7,0.8,2.8v10.1c0,0.9,0,1.7,0.1,2.5c0.1,0.8,0.3,1.4,0.5,1.8h-5.4
	c-0.1-0.3-0.2-0.6-0.2-0.9c-0.1-0.3-0.1-0.6-0.1-1c-0.9,0.9-1.9,1.5-3,1.8c-1.2,0.4-2.3,0.5-3.5,0.5c-0.9,0-1.8-0.1-2.6-0.3
	c-0.8-0.2-1.5-0.6-2.1-1.1c-0.6-0.5-1.1-1.1-1.4-1.8c-0.3-0.7-0.5-1.6-0.5-2.6c0-1.1,0.2-2,0.6-2.7c0.4-0.7,0.9-1.3,1.5-1.7
	c0.6-0.4,1.3-0.7,2.1-1c0.8-0.2,1.6-0.4,2.4-0.5c0.8-0.1,1.6-0.2,2.4-0.3c0.8-0.1,1.5-0.2,2.1-0.3c0.6-0.2,1.1-0.4,1.4-0.7
	c0.3-0.3,0.5-0.7,0.5-1.3c0-0.6-0.1-1-0.3-1.4c-0.2-0.3-0.4-0.6-0.8-0.8c-0.3-0.2-0.7-0.3-1.1-0.4c-0.4-0.1-0.9-0.1-1.3-0.1
	c-1.1,0-1.9,0.2-2.5,0.7c-0.6,0.5-1,1.2-1.1,2.3h-5.3C49.7,12.1,50,11.1,50.6,10.3z M61.1,17.8c-0.3,0.1-0.7,0.2-1.1,0.3
	c-0.4,0.1-0.8,0.1-1.2,0.2c-0.4,0.1-0.9,0.1-1.3,0.2c-0.4,0.1-0.8,0.2-1.2,0.3c-0.4,0.1-0.7,0.3-1,0.5c-0.3,0.2-0.5,0.5-0.7,0.8
	c-0.2,0.3-0.3,0.7-0.3,1.2c0,0.5,0.1,0.9,0.3,1.2c0.2,0.3,0.4,0.6,0.7,0.8c0.3,0.2,0.7,0.3,1.1,0.4c0.4,0.1,0.8,0.1,1.2,0.1
	c1.1,0,1.9-0.2,2.4-0.5c0.6-0.4,1-0.8,1.3-1.3c0.3-0.5,0.4-1,0.5-1.5c0.1-0.5,0.1-0.9,0.1-1.2v-2C61.8,17.5,61.5,17.7,61.1,17.8z"/>
<path fill="#3a8ef2" d="M69.6,9.4v-2h3.3V5.7c0-0.8,0.1-1.6,0.2-2.3c0.1-0.7,0.4-1.3,0.7-1.8c0.4-0.5,0.8-0.9,1.4-1.2
	C75.9,0.1,76.7,0,77.6,0c0.3,0,0.7,0,1,0c0.3,0,0.6,0.1,1,0.1v2c-0.3-0.1-0.6-0.1-0.9-0.1C78.4,2,78.1,2,77.9,2
	c-0.7,0-1.2,0.1-1.5,0.3c-0.4,0.2-0.6,0.5-0.8,0.8c-0.2,0.3-0.3,0.7-0.3,1.2c0,0.5,0,0.9,0,1.5v1.7h3.8v2h-3.8v17.4h-2.4V9.4H69.6z
	 M83.8,0v3.8h-2.4V0H83.8z M83.8,7.4v19.4h-2.4V7.4H83.8z"/>
<path fill="#3a8ef2" d="M90.6,7.4v3.3h0.1C91.1,9.6,91.9,8.7,93,8c1.2-0.7,2.4-1.1,3.8-1.1c1.4,0,2.5,0.2,3.4,0.5
	c0.9,0.4,1.6,0.8,2.2,1.5c0.6,0.6,0.9,1.4,1.2,2.3c0.2,0.9,0.3,2,0.3,3.1v12.5h-2.4V14.7c0-0.8-0.1-1.6-0.2-2.3
	c-0.2-0.7-0.4-1.3-0.8-1.9c-0.4-0.5-0.9-0.9-1.5-1.2c-0.6-0.3-1.4-0.5-2.4-0.5c-1,0-1.8,0.2-2.5,0.5c-0.7,0.3-1.4,0.8-1.9,1.4
	c-0.5,0.6-0.9,1.3-1.2,2.1c-0.3,0.8-0.4,1.7-0.5,2.7v11.3h-2.4V7.4H90.6z"/>
<path fill="#3a8ef2" d="M108.8,10.5c0.4-0.8,0.9-1.5,1.6-2c0.7-0.5,1.5-0.9,2.4-1.2c0.9-0.3,2-0.4,3.1-0.4c0.9,0,1.7,0.1,2.6,0.2
	c0.9,0.2,1.6,0.5,2.3,0.9c0.7,0.5,1.2,1.1,1.7,1.9c0.4,0.8,0.6,1.9,0.6,3.2v10.3c0,1,0.5,1.4,1.4,1.4c0.3,0,0.5-0.1,0.8-0.1v2
	c-0.3,0.1-0.5,0.1-0.7,0.1c-0.2,0-0.5,0-0.8,0c-0.6,0-1.1-0.1-1.4-0.2c-0.4-0.2-0.6-0.4-0.8-0.7c-0.2-0.3-0.3-0.7-0.4-1.1
	c-0.1-0.4-0.1-0.9-0.1-1.4h-0.1c-0.4,0.6-0.9,1.2-1.3,1.7c-0.4,0.5-0.9,0.9-1.5,1.2c-0.5,0.3-1.2,0.6-1.8,0.8
	c-0.7,0.2-1.5,0.3-2.5,0.3c-0.9,0-1.8-0.1-2.5-0.3c-0.8-0.2-1.5-0.6-2.1-1c-0.6-0.5-1.1-1.1-1.4-1.8c-0.3-0.7-0.5-1.6-0.5-2.5
	c0-1.4,0.3-2.4,0.9-3.2c0.6-0.8,1.4-1.3,2.4-1.7c1-0.4,2.1-0.7,3.3-0.8c1.2-0.2,2.5-0.3,3.8-0.5c0.5,0,0.9-0.1,1.3-0.2
	c0.4-0.1,0.7-0.2,0.9-0.4c0.3-0.2,0.4-0.4,0.6-0.8c0.1-0.3,0.2-0.8,0.2-1.3c0-0.8-0.1-1.5-0.4-2c-0.3-0.5-0.6-0.9-1.1-1.2
	c-0.5-0.3-1-0.5-1.6-0.6c-0.6-0.1-1.3-0.2-2-0.2c-1.5,0-2.7,0.4-3.7,1.1c-1,0.7-1.5,1.9-1.5,3.4h-2.4
	C108.2,12.3,108.4,11.3,108.8,10.5z M120.7,16.2c-0.2,0.3-0.4,0.5-0.9,0.6c-0.4,0.1-0.8,0.2-1.1,0.3c-1,0.2-2,0.3-3.1,0.5
	c-1.1,0.1-2,0.3-2.9,0.6s-1.6,0.7-2.2,1.2c-0.6,0.5-0.8,1.2-0.8,2.2c0,0.6,0.1,1.1,0.4,1.6c0.2,0.5,0.6,0.9,1,1.2
	c0.4,0.3,0.9,0.6,1.4,0.8c0.5,0.2,1.1,0.3,1.6,0.3c0.9,0,1.8-0.1,2.6-0.4c0.8-0.3,1.5-0.7,2.2-1.2c0.6-0.5,1.1-1.2,1.5-1.9
	c0.4-0.8,0.5-1.6,0.5-2.6L120.7,16.2L120.7,16.2z"/>
<path fill="#3a8ef2" d="M130.2,7.4v3.3h0.1c0.5-1.2,1.3-2.1,2.4-2.8c1.2-0.7,2.4-1.1,3.8-1.1c1.4,0,2.5,0.2,3.4,0.5
	c0.9,0.4,1.6,0.8,2.2,1.5c0.6,0.6,0.9,1.4,1.2,2.3c0.2,0.9,0.3,2,0.3,3.1v12.5h-2.4V14.7c0-0.8-0.1-1.6-0.2-2.3
	c-0.2-0.7-0.4-1.3-0.8-1.9c-0.4-0.5-0.9-0.9-1.5-1.2c-0.6-0.3-1.4-0.5-2.4-0.5c-1,0-1.8,0.2-2.5,0.5c-0.7,0.3-1.4,0.8-1.9,1.4
	c-0.5,0.6-0.9,1.3-1.2,2.1c-0.3,0.8-0.4,1.7-0.5,2.7v11.3h-2.4V7.4H130.2z"/>
<path fill="#3a8ef2" d="M159.1,11.2c-0.3-0.5-0.6-1-1.1-1.3c-0.5-0.4-1-0.6-1.6-0.8c-0.6-0.2-1.2-0.2-1.9-0.2
	c-0.5,0-1.1,0.1-1.6,0.2c-0.5,0.1-1,0.3-1.5,0.6c-0.5,0.3-0.8,0.6-1.1,1c-0.3,0.4-0.4,1-0.4,1.6c0,0.5,0.1,1,0.4,1.3
	c0.3,0.4,0.6,0.7,1,0.9c0.4,0.3,0.8,0.5,1.3,0.6c0.5,0.2,0.9,0.3,1.3,0.4l3.2,0.7c0.7,0.1,1.3,0.3,2,0.5c0.7,0.3,1.3,0.6,1.8,1
	c0.5,0.4,0.9,1,1.3,1.6c0.3,0.6,0.5,1.4,0.5,2.2c0,1.1-0.2,1.9-0.7,2.7c-0.5,0.7-1.1,1.3-1.8,1.8c-0.7,0.5-1.6,0.8-2.5,1
	c-0.9,0.2-1.8,0.3-2.7,0.3c-2.3,0-4.1-0.5-5.5-1.6c-1.4-1.1-2.2-2.8-2.4-5.2h2.4c0.1,1.6,0.7,2.8,1.7,3.6c1.1,0.8,2.4,1.2,4,1.2
	c0.6,0,1.2-0.1,1.8-0.2c0.6-0.1,1.2-0.3,1.7-0.6c0.5-0.3,1-0.7,1.3-1.1c0.3-0.5,0.5-1,0.5-1.7c0-0.6-0.1-1.1-0.4-1.4
	c-0.2-0.4-0.6-0.7-1-1c-0.4-0.3-0.9-0.5-1.4-0.7c-0.5-0.2-1-0.3-1.6-0.5l-3-0.7c-0.8-0.2-1.5-0.4-2.1-0.7c-0.7-0.3-1.2-0.6-1.7-1
	c-0.5-0.4-0.9-0.9-1.1-1.4c-0.3-0.6-0.4-1.3-0.4-2.1c0-1,0.2-1.8,0.7-2.5c0.4-0.7,1-1.3,1.7-1.7c0.7-0.4,1.5-0.7,2.3-0.9
	c0.9-0.2,1.7-0.3,2.6-0.3c1,0,1.9,0.1,2.7,0.4c0.8,0.3,1.6,0.6,2.2,1.2c0.6,0.5,1.1,1.2,1.5,2c0.4,0.8,0.6,1.7,0.6,2.7h-2.4
	C159.5,12.4,159.4,11.8,159.1,11.2z"/>
<g>
	<polygon fill="#3a8ef2" points="9.1,12.6 8.4,10.7 5.1,0 0,0 8.7,26.9 13.7,26.9 	"/>
	<polygon fill="#3a8ef2" points="18.2,0 13.2,18.3 15.3,26.9 15.3,26.9 24.3,0 	"/>
</g>
<g>
	<path fill="#3a8ef2" d="M7.8,39.7h1.1v7.7h3.6v0.9H7.8V39.7z"/>
	<path fill="#3a8ef2" d="M15.1,45.5l-0.9,2.7h-1.1l2.8-8.6h1.3l2.9,8.6H19l-0.9-2.7H15.1z M17.8,44.7L17,42.2
		c-0.2-0.6-0.3-1.1-0.4-1.6h0c-0.1,0.5-0.3,1-0.4,1.6l-0.8,2.5H17.8z M17.9,38.2c0,0.6-0.5,1.1-1.2,1.1c-0.7,0-1.2-0.5-1.2-1.1
		c0-0.6,0.5-1.2,1.2-1.2C17.4,37.1,17.9,37.6,17.9,38.2z M16,38.2c0,0.3,0.2,0.7,0.6,0.7c0.4,0,0.6-0.3,0.6-0.7
		c0-0.4-0.2-0.7-0.6-0.7C16.2,37.5,16,37.8,16,38.2z"/>
	<path fill="#3a8ef2" d="M21.5,48.2v-8.6h1.2l2.7,4.3c0.6,1,1.1,1.9,1.5,2.8l0,0c-0.1-1.1-0.1-2.2-0.1-3.5v-3.6h1v8.6h-1.1L24,43.9
		c-0.6-1-1.1-1.9-1.6-2.9l0,0c0.1,1.1,0.1,2.1,0.1,3.5v3.7H21.5z"/>
	<path fill="#3a8ef2" d="M31.1,45.5l-0.9,2.7h-1.1l2.8-8.6h1.3l2.9,8.6H35l-0.9-2.7H31.1z M33.8,44.7L33,42.2
		c-0.2-0.6-0.3-1.1-0.4-1.6h0c-0.1,0.5-0.3,1-0.4,1.6l-0.8,2.5H33.8z"/>
	<path fill="#3a8ef2" d="M44.5,44.2h-3.3v3.1h3.6v0.9h-4.7v-8.6h4.5v0.9h-3.4v2.7h3.3V44.2z"/>
	<path fill="#3a8ef2" d="M46.4,48.2v-8.6h1.2l2.7,4.3c0.6,1,1.1,1.9,1.5,2.8l0,0c-0.1-1.1-0.1-2.2-0.1-3.5v-3.6h1v8.6h-1.1L49,43.9
		c-0.6-1-1.1-1.9-1.6-2.9l0,0c0.1,1.1,0.1,2.1,0.1,3.5v3.7H46.4z"/>
	<path fill="#3a8ef2" d="M54.7,39.7h1.1v4.1h0c0.2-0.3,0.4-0.6,0.7-0.9l2.6-3.2h1.3l-3,3.6l3.3,4.9h-1.3L56.6,44L55.8,45v3.3h-1.1
		V39.7z"/>
	<path fill="#3a8ef2" d="M65.9,44.2h-3.2v3.1h3.6v0.9h-4.7v-8.6h4.5v0.9h-3.4v2.7h3.2V44.2z"/>
	<path fill="#3a8ef2" d="M67.8,39.7h1.1v7.7h3.6v0.9h-4.7V39.7z"/>
	<path fill="#3a8ef2" d="M74.3,40.6h-2.5v-0.9h6.2v0.9h-2.6v7.6h-1.1V40.6z"/>
	<path fill="#3a8ef2" d="M88.9,43.9c0,3-1.7,4.5-3.9,4.5c-2.2,0-3.8-1.8-3.8-4.4c0-2.7,1.7-4.5,3.9-4.5
		C87.4,39.5,88.9,41.3,88.9,43.9z M82.4,44c0,1.8,1,3.5,2.7,3.5c1.7,0,2.7-1.6,2.7-3.6c0-1.7-0.9-3.5-2.7-3.5
		C83.3,40.4,82.4,42.1,82.4,44z"/>
	<path fill="#3a8ef2" d="M96.2,48c-0.4,0.2-1.2,0.4-2.2,0.4c-2.4,0-4.1-1.5-4.1-4.3c0-2.7,1.8-4.5,4.4-4.5c1,0,1.7,0.2,2,0.4
		L96,40.8c-0.4-0.2-1-0.4-1.7-0.4c-2,0-3.3,1.3-3.3,3.5c0,2.1,1.2,3.5,3.2,3.5c0.7,0,1.3-0.1,1.8-0.4L96.2,48z"/>
	<path fill="#3a8ef2" d="M98.8,39.7v3.6h4v-3.6h1.1v8.6h-1.1v-4h-4v4h-1.1v-8.6H98.8z"/>
	<path fill="#3a8ef2" d="M108.5,46.9c0.5,0.3,1.2,0.6,1.9,0.6c1.1,0,1.7-0.6,1.7-1.5c0-0.8-0.4-1.3-1.6-1.7
		c-1.4-0.5-2.2-1.2-2.2-2.4c0-1.3,1.1-2.3,2.7-2.3c0.9,0,1.5,0.2,1.8,0.4l-0.3,0.9c-0.3-0.2-0.8-0.4-1.6-0.4c-1.1,0-1.6,0.7-1.6,1.3
		c0,0.8,0.5,1.2,1.7,1.7c1.4,0.6,2.1,1.3,2.1,2.5c0,1.3-1,2.5-2.9,2.5c-0.8,0-1.7-0.2-2.1-0.5L108.5,46.9z"/>
	<path fill="#3a8ef2" d="M114.9,48.2v-8.6h1.2l2.7,4.3c0.6,1,1.1,1.9,1.5,2.8l0,0c-0.1-1.1-0.1-2.2-0.1-3.5v-3.6h1v8.6h-1.1
		l-2.7-4.4c-0.6-1-1.1-1.9-1.6-2.9l0,0c0.1,1.1,0.1,2.1,0.1,3.5v3.7H114.9z"/>
	<path fill="#3a8ef2" d="M124.5,45.5l-0.9,2.7h-1.1l2.8-8.6h1.3l2.9,8.6h-1.2l-0.9-2.7H124.5z M127.3,44.7l-0.8-2.5
		c-0.2-0.6-0.3-1.1-0.4-1.6h0c-0.1,0.5-0.3,1-0.4,1.6l-0.8,2.5H127.3z"/>
	<path fill="#3a8ef2" d="M130.9,39.8c0.5-0.1,1.2-0.2,2-0.2c1.1,0,1.8,0.2,2.3,0.6c0.4,0.3,0.7,0.8,0.7,1.5c0,0.8-0.5,1.6-1.4,1.9v0
		c0.8,0.2,1.7,0.9,1.7,2.2c0,0.7-0.3,1.3-0.7,1.7c-0.6,0.5-1.5,0.8-2.9,0.8c-0.7,0-1.3-0.1-1.7-0.1V39.8z M132,43.3h1
		c1.1,0,1.8-0.6,1.8-1.4c0-1-0.7-1.4-1.8-1.4c-0.5,0-0.8,0-1,0.1V43.3z M132,47.4c0.2,0,0.5,0.1,0.9,0.1c1.1,0,2.1-0.4,2.1-1.7
		c0-1.2-1-1.7-2.2-1.7H132V47.4z"/>
	<path fill="#3a8ef2" d="M137.7,39.8c0.5-0.1,1.2-0.2,2-0.2c1.1,0,1.8,0.2,2.3,0.6c0.4,0.3,0.7,0.8,0.7,1.5c0,0.8-0.5,1.6-1.4,1.9v0
		c0.8,0.2,1.7,0.9,1.7,2.2c0,0.7-0.3,1.3-0.7,1.7c-0.6,0.5-1.5,0.8-2.9,0.8c-0.7,0-1.3-0.1-1.7-0.1V39.8z M138.8,43.3h1
		c1.1,0,1.8-0.6,1.8-1.4c0-1-0.7-1.4-1.8-1.4c-0.5,0-0.8,0-1,0.1V43.3z M138.8,47.4c0.2,0,0.5,0.1,0.9,0.1c1.1,0,2.1-0.4,2.1-1.7
		c0-1.2-1-1.7-2.2-1.7h-0.9V47.4z"/>
	<path fill="#3a8ef2" d="M146,40.6h-2.5v-0.9h6.2v0.9h-2.6v7.6H146V40.6z"/>
</g>
</svg>
